<svg width="21" height="21" viewBox="0 0 21 21" fill="none" xmlns="http://www.w3.org/2000/svg">
<symbol id='floppy'>
<svg width="21" height="21" viewBox="0 0 21 21" fill="currentColor" xmlns="http://www.w3.org/2000/svg">
<symbol id='floppy'>
<path d="M0,0H1.62V1.62H0Z" fill="black" />
<path d="M0,1.62H1.62V3.23H0Z" fill="black" />
<path d="M0,3.23H1.62V4.85H0Z" fill="black" />
<path d="M0,4.85H1.62V6.46H0Z" fill="black" />
<path d="M0,6.46H1.62V8.08H0Z" fill="black" />
<path d="M0,8.08H1.62V9.69H0Z" fill="black" />
<path d="M0,9.69H1.62V11.31H0Z" fill="black" />
<path d="M0,11.31H1.62V12.92H0Z" fill="black" />
<path d="M0,12.92H1.62V14.54H0Z" fill="black" />
<path d="M0,14.54H1.62V16.15H0Z" fill="black" />
<path d="M0,16.15H1.62V17.77H0Z" fill="black" />
<path d="M0,17.77H1.62V19.38H0Z" fill="black" />
<path d="M0,19.38H1.62V21H0Z" fill="black" />
<path d="M17.77,0V1.62H16.15V0Z" fill="black" />
<path d="M16.15,0V1.62H14.54L14.54,0Z" fill="black" />
<path d="M14.54,0V1.62H12.92V0Z" fill="black" />
<path d="M12.92,0L12.92,1.62H11.31V0Z" fill="black" />
<path d="M11.31,0V1.62H9.69V0Z" fill="black" />
<path d="M9.69,0V1.62H8.08V0Z" fill="black" />
<path d="M8.08,0V1.62H6.46L6.46,0Z" fill="black" />
<path d="M6.46,0L6.46,1.62H4.85V0Z" fill="black" />
<path d="M4.85,0V1.62H3.23L3.23,0Z" fill="black" />
<path d="M3.23,0L3.23,1.62H1.62V0Z" fill="black" />
<path d="M19.38,1.62V3.23H17.77V1.62Z" fill="black" />
<path d="M4.85,3.23V4.85H3.23V3.23Z" fill="black" />
<path d="M4.85,1.62V3.23H3.23V1.62Z" fill="black" />
<path d="M4.85,4.85V6.46H3.23V4.85Z" fill="black" />
<path d="M16.15,3.23V4.85H14.54V3.23Z" fill="black" />
<path d="M16.15,1.62V3.23H14.54V1.62Z" fill="black" />
<path d="M16.15,4.85V6.46H14.54V4.85Z" fill="black" />
<path d="M12.92,3.23V4.85H11.31V3.23Z" fill="black" />
<path d="M12.92,1.62V3.23H11.31V1.62Z" fill="black" />
<path d="M12.92,4.85V6.46H11.31V4.85Z" fill="black" />
<path d="M16.15,6.46V8.08H14.54V6.46Z" fill="black" />
<path d="M14.54,6.46V8.08H12.92V6.46Z" fill="black" />
<path d="M12.92,6.46V8.08H11.31L11.31,6.46Z" fill="black" />
<path d="M11.31,6.46V8.08H9.69V6.46Z" fill="black" />
<path d="M9.69,6.46V8.08H8.08V6.46Z" fill="black" />
<path d="M8.08,6.46V8.08H6.46V6.46Z" fill="black" />
<path d="M6.46,6.46L6.46,8.08H4.85V6.46Z" fill="black" />
<path d="M4.85,6.46V8.08H3.23V6.46Z" fill="black" />
<path d="M17.77,11.31V12.92H16.15V11.31Z" fill="black" />
<path d="M16.15,11.31V12.92H14.54V11.31Z" fill="black" />
<path d="M14.54,11.31V12.92H12.92V11.31Z" fill="black" />
<path d="M12.92,11.31L12.92,12.92H11.31L11.31,11.31Z" fill="black" />
<path d="M11.31,11.31V12.92H9.69V11.31Z" fill="black" />
<path d="M9.69,11.31V12.92H8.08V11.31Z" fill="black" />
<path d="M8.08,11.31V12.92H6.46V11.31Z" fill="black" />
<path d="M6.46,11.31V12.92H4.85V11.31Z" fill="black" />
<path d="M4.85,11.31V12.92H3.23V11.31Z" fill="black" />
<path d="M17.77,12.92V14.54H16.15V12.92Z" fill="black" />
<path d="M4.85,12.92V14.54H3.23V12.92Z" fill="black" />
<path d="M17.77,14.54V16.15H16.15V14.54Z" fill="black" />
<path d="M4.85,14.54V16.15H3.23V14.54Z" fill="black" />
<path d="M17.77,16.15V17.77H16.15V16.15Z" fill="black" />
<path d="M4.85,16.15V17.77H3.23V16.15Z" fill="black" />
<path d="M4.85,17.77V19.38H3.23V17.77Z" fill="black" />
<path d="M17.77,17.77V19.38H16.15V17.77Z" fill="black" />
<path d="M19.38,19.38V21H17.77V19.38Z" fill="black" />
<path d="M17.77,19.38V21H16.15V19.38Z" fill="black" />
<path d="M16.15,19.38V21H14.54V19.38Z" fill="black" />
<path d="M14.54,19.38V21H12.92V19.38Z" fill="black" />
<path d="M12.92,19.38V21H11.31V19.38Z" fill="black" />
<path d="M11.31,19.38V21H9.69V19.38Z" fill="black" />
<path d="M9.69,19.38V21H8.08V19.38Z" fill="black" />
<path d="M8.08,19.38V21H6.46V19.38Z" fill="black" />
<path d="M6.46,19.38V21H4.85V19.38Z" fill="black" />
<path d="M4.85,19.38V21H3.23V19.38Z" fill="black" />
<path d="M3.23,19.38V21H1.62V19.38Z" fill="black" />
<path d="M21,21H19.38V19.38H21Z" fill="black" />
<path d="M21,19.38H19.38V17.77H21Z" fill="black" />
<path d="M21,17.77H19.38V16.15H21Z" fill="black" />
<path d="M21,16.15H19.38V14.54H21Z" fill="black" />
<path d="M21,14.54L19.38,14.54V12.92H21Z" fill="black" />
<path d="M21,12.92L19.38,12.92L19.38,11.31L21,11.31Z" fill="black" />
<path d="M21,11.31L19.38,11.31V9.69L21,9.69Z" fill="black" />
<path d="M21,9.69L19.38,9.69V8.08L21,8.08Z" fill="black" />
<path d="M21,8.08L19.38,8.08V6.46L21,6.46Z" fill="black" />
<path d="M21,6.46H19.38V4.85L21,4.85Z" fill="black" />
<path d="M21,4.85H19.38V3.23H21Z" fill="black" />
</symbol>
</svg>



</symbol>
</svg>
